<svg height="402" viewBox="0 0 413 402" width="413" xmlns="http://www.w3.org/2000/svg"><g fill="#fff" fill-rule="evenodd"><path d="m342.5773 98.4515c-1.057 0-2.13-.24-3.139-.748-3.454-1.736-4.845-5.943-3.109-9.398 3.232-6.431 7.841-18.962 2.377-30.636-4.866-10.398-16.711-17.86-35.205-22.181-5.77-1.348-11.309-5.145-17.172-9.165-11.456-7.856-23.306-15.977-39.242-10.005-3.64 1.363-7.445 2.676-11.125 3.946-1.805.623-3.622 1.249-5.445 1.891-3.643 1.282-7.642-.634-8.925-4.281-1.283-3.648.633-7.644 4.281-8.926 1.849-.65 3.692-1.287 5.522-1.918 3.761-1.298 7.312-2.523 10.78-3.823 22.758-8.528 39.702 3.088 52.071 11.569 4.748 3.255 9.232 6.33 12.44 7.079 22.884 5.346 37.923 15.399 44.7 29.879 7.969 17.028 1.824 34.162-2.549 42.86-1.23 2.445-3.697 3.857-6.26 3.857"/><path d="m114.0001 390.1532c-24.778 0-51.761-9.987-74.21-29.646-42.237-36.989-52.66-94.419-23.233-128.023 8.393-9.584 18.546-16.089 31.039-19.885 3.7-1.124 7.609.964 8.733 4.663 1.124 3.7-.964 7.609-4.663 8.733-9.918 3.013-17.957 8.153-24.577 15.712-24.341 27.797-14.506 76.365 21.925 108.267 36.43 31.905 85.872 35.243 110.213 7.448 3.729-4.26 6.733-9.105 8.927-14.4 1.48-3.571 5.574-5.268 9.147-3.787 3.571 1.48 5.266 5.575 3.787 9.147-2.78 6.708-6.591 12.852-11.328 18.262-13.787 15.744-33.918 23.509-55.76 23.509"/><path d="m186.5333 351.6903c-6.805 0-13.706-.571-20.595-1.727-23.491-3.94-44.082-14.352-57.979-29.32-2.631-2.832-2.467-7.262.366-9.892 2.832-2.63 7.262-2.466 9.893.367 24.109 25.963 71.954 34.409 106.652 18.832 3.527-1.585 7.67-.007 9.253 3.518 1.584 3.528.008 7.67-3.519 9.253-13.196 5.925-28.368 8.969-44.071 8.969"/><path d="m351.964 138.892c-.725 0-1.462-.113-2.188-.353-3.672-1.208-5.67-5.164-4.462-8.836 3.04-9.242-.007-20.481-8.361-30.835-9.011-11.172-22.423-19.57-34.166-21.397-3.819-.594-6.434-4.173-5.841-7.993.595-3.82 4.174-6.432 7.994-5.841 18.195 2.831 34.096 15.514 42.91 26.441 11.392 14.122 15.315 30.159 10.762 44-.968 2.945-3.707 4.814-6.648 4.814"/><path d="m98.8097 264.9345c-14.94 0-31.589-6.094-43.621-21.574-19.62-25.244-21.051-55.655-3.827-81.351 2.152-3.212 6.501-4.071 9.712-1.917 3.212 2.153 4.07 6.501 1.917 9.712-13.698 20.435-12.483 44.721 3.252 64.964 12.326 15.858 32.267 18.99 45.596 13.892 5.131-1.964 16.946-8.246 15.827-24.121-.271-3.856 2.635-7.202 6.492-7.474 3.841-.279 7.203 2.635 7.474 6.491 1.232 17.494-8.035 31.767-24.789 38.179-5.337 2.042-11.523 3.199-18.033 3.199"/><path d="m119.0782 232.2255c-12.156 0-25.568-4.209-38.093-14.646-18.058-15.048-28.94-36.68-29.108-57.865-.147-18.365 7.727-34.915 22.769-47.862 2.931-2.521 7.349-2.19 9.872.74 2.522 2.93 2.191 7.35-.739 9.872-11.824 10.177-18.015 23.019-17.903 37.139.135 16.866 9.358 34.96 24.072 47.222 12.25 10.209 32.565 16.42 48.215 5.935 9.683-6.487 13.091-17.031 9.352-28.93-1.16-3.688.891-7.617 4.579-8.776 3.687-1.159 7.617.891 8.777 4.579 5.566 17.715-.148 34.864-14.916 44.758-7.187 4.814-16.581 7.834-26.877 7.834"/><path d="m133.9503 191.0282c-6.914 0-13.587-1.375-19.356-4.26-28.741-14.37-39.949-41.761-40.855-62.605-.603-13.866 7.328-41.773 31.18-57.627 3.219-2.14 7.564-1.264 9.704 1.955 2.14 3.22 1.265 7.565-1.954 9.704-17.846 11.862-25.435 34.079-24.944 45.36.253 5.826 3.041 35.647 33.129 50.691 12.088 6.045 31.717 1.825 42.865-9.212 6.941-6.873 13.298-18.997 4.165-37.727-1.695-3.475-.251-7.665 3.223-9.36 3.475-1.695 7.665-.252 9.36 3.224 9.82 20.135 7.305 39.749-6.898 53.812-10.422 10.319-25.517 16.045-39.619 16.045"/><path d="m167.1017 129.5922c-16.666 0-32.867-5.558-45.978-16.21-11.737-9.537-21.556-31.669-16.636-53.903 6.317-28.541 33.013-39.289 48.364-43.155 6.356-1.601 12.094-3.571 17.641-5.476 17.336-5.952 33.71-11.574 56.695-.142 8.863 4.408 18.366 6.679 27.557 8.874 22.256 5.317 45.271 10.816 50.658 46.514.576 3.823-2.055 7.389-5.878 7.966-3.814.574-7.389-2.054-7.966-5.877-3.978-26.364-18.335-29.794-40.067-34.986-9.491-2.267-20.246-4.836-30.538-9.956-17.745-8.825-29.561-4.767-45.915.848-5.821 1.999-11.84 4.066-18.768 5.811-21.406 5.391-34.586 16.666-38.113 32.604-3.526 15.93 3.378 33.173 11.795 40.012 15.657 12.722 36.849 16.43 56.692 9.919 21.029-6.901 36.567-24.232 42.63-47.55.972-3.741 4.794-5.983 8.536-5.013 3.741.972 5.985 4.794 5.013 8.536-7.284 28.018-26.17 48.914-51.815 57.329-7.882 2.586-15.949 3.855-23.907 3.855"/><path d="m369.6476 206.1181c-.672 0-1.355-.098-2.031-.303-3.7-1.119-5.792-5.027-4.671-8.727 6.348-20.967 2.583-40.422-10.328-53.378-17.631-17.692-49.198-21.425-86.602-10.241-3.707 1.108-7.603-.997-8.712-4.702-1.107-3.703.998-7.604 4.702-8.711 42.5-12.707 79.143-7.688 100.529 13.772 16.666 16.723 21.699 41.259 13.809 67.316-.915 3.024-3.692 4.974-6.696 4.974"/><path d="m381.0031 261.3016c-.473 0-.951-.048-1.433-.147-3.785-.788-6.214-4.495-5.427-8.28 4.685-22.525-.597-41.953-14.494-53.3-18.239-14.895-48.355-14.981-82.625-.237-3.547 1.526-7.667-.112-9.196-3.663-1.528-3.552.112-7.669 3.663-9.197 39.233-16.878 74.591-16.058 97.014 2.253 18.079 14.764 25.13 39.182 19.345 66.996-.688 3.304-3.6 5.575-6.847 5.575"/><path d="m343.8771 252.12c-17.674 0-37.468 5.27-56.153 16.058-20.695 11.947-36.823 28.77-45.413 47.369-8.21 17.775-8.455 34.972-.688 48.424 16.517 28.607 64.071 32.184 106.01 7.971 41.936-24.212 62.617-67.184 46.1-95.793-9.157-15.861-27.863-24.029-49.856-24.029m-52.175 149.816c-3.055 0-6.08-.134-9.069-.407-24.158-2.202-43.028-13.055-53.135-30.558-10.105-17.504-10.068-39.272.104-61.295 9.792-21.2 27.947-40.243 51.122-53.623 23.174-13.379 48.744-19.583 72-17.461 24.158 2.202 43.028 13.053 53.134 30.557s10.069 39.272-.103 61.295c-9.792 21.199-27.947 40.243-51.122 53.623-20.196 11.66-42.214 17.869-62.931 17.869"/><path d="m280.6115 365.7587c-2.42 0-4.772-1.255-6.069-3.501-4.788-8.294-3.424-19.034 3.841-30.243 6.353-9.802 16.734-19.173 29.23-26.388 28.12-16.234 56.311-16.374 65.579-.325 1.933 3.348.785 7.629-2.562 9.562-3.349 1.931-7.629.787-9.563-2.562-3.864-6.692-23.407-7.857-46.454 5.45-10.462 6.04-19.385 14.014-24.482 21.877-4.136 6.381-5.431 12.224-3.464 15.629 1.932 3.348.785 7.629-2.563 9.563-1.102.635-2.306.938-3.493.938"/><path d="m226.004 98.205c-1.844 0-3.685-.724-5.06-2.162-2.671-2.793-2.573-7.224.22-9.897 13.523-12.934 34.274-21.849 55.509-23.848 23.524-2.218 45.12 3.895 60.807 17.204 2.947 2.501 3.309 6.919.808 9.867-2.502 2.946-6.918 3.31-9.867.808-12.785-10.848-30.702-15.798-50.436-13.941-18.201 1.714-35.824 9.2-47.143 20.028-1.357 1.296-3.099 1.941-4.838 1.941"/></g></svg>